<svg viewBox="0 0 512 512" xmlns="http://www.w3.org/2000/svg"><g id="Layer_2" data-name="Layer 2"><g id="Flag_rectangle_copy_6" data-name="Flag_rectangle copy 6"><g id="Germany"><path d="m507 341.33a742.7 742.7 0 0 1 -13 75.81c-8.17 34-42.81 68.67-76.83 76.83a735 735 0 0 1 -156.17 18.03h-10a735.26 735.26 0 0 1 -156.15-18c-34-8.15-68.64-42.8-76.83-76.83a742.7 742.7 0 0 1 -13.02-75.84 725 725 0 0 1 0-170.67 741.39 741.39 0 0 1 13-75.79c8.19-34 42.87-68.68 76.83-76.84a729.18 729.18 0 0 1 322.3 0c34 8.17 68.66 42.85 76.83 76.84a741.39 741.39 0 0 1 13 75.79 725 725 0 0 1 .04 170.67z" fill="#d00"/><path d="m507 341.33a742.7 742.7 0 0 1 -13 75.81c-8.17 34-42.81 68.67-76.83 76.83a735 735 0 0 1 -156.17 18.03h-10a735.26 735.26 0 0 1 -156.15-18c-34-8.15-68.64-42.8-76.83-76.83a742.7 742.7 0 0 1 -13.02-75.84z" fill="#ffce00"/><path d="m507 170.66h-502a741.39 741.39 0 0 1 13-75.79c8.19-34 42.87-68.68 76.83-76.84a729.18 729.18 0 0 1 322.3 0c34 8.17 68.66 42.85 76.83 76.84a741.39 741.39 0 0 1 13.04 75.79z"/></g></g></g></svg>