<svg viewBox="0 0 512 512" xmlns="http://www.w3.org/2000/svg"><g id="Layer_2" data-name="Layer 2"><g id="Flag_rectangle_copy_6" data-name="Flag_rectangle copy 6"><g id="Spain"><path d="m500.38 385.52q-2.86 15.83-6.4 31.62c-8.17 34-42.81 68.67-76.83 76.83a735 735 0 0 1 -156.15 18.03h-10a735.18 735.18 0 0 1 -156.15-18c-34-8.15-68.65-42.8-76.83-76.83q-3.54-15.79-6.4-31.62a726.93 726.93 0 0 1 0-259q2.83-15.81 6.38-31.6c8.2-34.11 42.89-68.76 76.85-76.95a729.18 729.18 0 0 1 322.3 0c34 8.17 68.66 42.85 76.83 76.84q3.54 15.8 6.38 31.6a726.93 726.93 0 0 1 .02 259.08z" fill="#c60b1e"/><path d="m500.38 385.52h-488.76a726.93 726.93 0 0 1 0-259h488.74a726.93 726.93 0 0 1 .02 259z" fill="#ffc400"/></g></g></g></svg>