<svg width="180" height="34" viewBox="0 0 180 34" fill="none" xmlns="http://www.w3.org/2000/svg">
<path d="M16.6579 17.1673L14.5905 20.612H0L0.0590743 19.5027C0.826994 19.386 1.71305 18.7437 1.71305 16.4083V6.13261C1.71305 4.78977 0.886064 4.38109 0.0590743 4.3227L0.177205 3.21338H8.2699L8.38805 4.3227C7.62013 4.38109 6.73406 4.78977 6.73406 6.13261V18.5686H10.7509C12.6411 18.4518 14.4723 17.9847 15.8309 16.4667L16.6579 17.1673Z" fill="#03576B"/>
<path d="M16.6582 13.4888C16.6582 9.46026 19.4936 6.13232 24.1602 6.13232C28.7677 6.13232 31.6622 9.40187 31.6622 13.4888C31.6622 17.5757 28.8268 20.8453 24.1602 20.8453C19.5527 20.8453 16.6582 17.5173 16.6582 13.4888ZM26.6412 13.4888C26.6412 10.3944 25.5188 7.82549 24.2192 7.82549C22.9197 7.82549 21.7973 10.3944 21.7973 13.4888C21.7973 16.5832 22.9197 19.1521 24.2192 19.1521C25.5188 19.1521 26.6412 16.5832 26.6412 13.4888Z" fill="#03576B"/>
<path d="M40.4046 17.167C40.4046 15.9994 37.2739 14.7733 34.911 13.3137C33.198 12.2627 32.1938 10.9199 32.6663 9.40187C33.3161 7.12487 36.2106 6.13232 39.1641 6.13232C41.9405 6.13232 43.9489 7.24165 44.2442 8.70127C44.7168 11.4453 40.5228 11.5621 40.8772 8.87641C40.9953 7.94226 39.9321 7.53357 38.8097 7.53357C37.7464 7.53357 36.8013 8.00064 36.8013 8.81802C36.8013 9.92733 39.6958 10.8031 42.7674 12.905C44.1261 13.8391 44.8349 14.89 44.8349 16.1745C44.8349 18.2763 42.8856 20.7869 38.3371 20.7869C34.7338 20.7869 31.8984 19.3273 31.8984 16.8751C31.8984 15.9994 32.6073 14.6565 34.3203 14.6565C35.4427 14.6565 36.2697 15.3571 36.2697 16.1745C36.2697 16.8751 35.4427 17.167 35.4427 17.6925C35.4427 18.685 36.6832 19.2105 37.9237 19.2105C39.5186 19.2105 40.4046 18.3347 40.4046 17.167Z" fill="#03576B"/>
<path d="M69.0544 17.1673L66.9869 20.612H52.3965L52.4555 19.5027C53.2235 19.386 54.1095 18.7437 54.1095 16.4083V6.13261C54.1095 4.78977 53.2825 4.38109 52.4555 4.3227L52.5737 3.21338H67.1051L68.6409 6.77485L67.6367 7.3587C66.5144 5.31523 65.5102 4.96492 59.4259 4.96492H59.1896V10.3947L63.7971 9.92762L64.2106 12.3798C62.6157 12.1462 60.9027 12.0879 59.1305 12.0295V18.627H63.1473C65.0376 18.5102 66.8688 18.0431 68.2274 16.5251L69.0544 17.1673Z" fill="#03576B"/>
<path d="M71.5944 16.1161V6.24905C71.5944 3.62174 70.5902 3.32982 69.8223 2.86274C71.299 0.994432 75.3158 0.877663 76.4382 1.40313V16.1161C76.4382 18.8018 77.2652 19.3272 78.0922 19.5024L78.1512 20.6117H69.8813L69.9404 19.5024C70.7083 19.3272 71.5944 18.8018 71.5944 16.1161Z" fill="#03576B"/>
<path d="M93.214 18.043C91.6191 20.0864 89.02 21.1957 86.3027 21.1957C81.9315 21.1957 78.4463 17.8094 78.4463 13.5473C78.4463 9.28524 81.9905 5.89893 86.3027 5.89893C90.6739 5.89893 93.4503 8.05916 93.0958 10.8032C92.8596 12.438 91.6781 13.4889 89.6107 14.1312C88.1339 14.5983 86.1846 14.8318 83.8808 14.3647C83.9399 16.7001 86.0073 18.4516 88.193 18.5684C89.5516 18.6852 91.2646 18.1013 92.2689 16.9336L93.214 18.043ZM83.9399 12.6716C87.6023 13.3722 89.079 11.8542 89.5516 10.4529C90.0242 8.93494 88.7246 7.76724 87.4841 7.94239C85.2394 8.11754 84.2943 10.2778 83.9399 12.6716Z" fill="#03576B"/>
<path d="M107.568 3.27174C107.568 5.84066 102.961 5.66551 102.961 3.21335C102.961 2.6295 102.961 1.34505 102.075 1.34505C101.011 1.34505 100.539 2.97981 100.539 4.73135V6.36614H104.556V8.11768H100.539V11.1537V16.1164C100.539 18.8021 101.366 19.3275 102.193 19.5027L102.252 20.612H93.8047L93.8638 19.5027C94.6317 19.3859 95.5178 18.7437 95.5178 16.4083V8.17605H93.8047V6.42451H95.5178C95.6359 4.73135 96.2857 3.09658 97.3489 2.04565C98.7076 0.644422 100.243 0.00219033 102.488 0.00219033C105.56 -0.0561944 107.568 1.05312 107.568 3.27174Z" fill="#03576B"/>
<path d="M123.399 19.0352C121.981 20.6116 120.682 21.0787 119.028 21.0787C117.196 21.0787 115.602 20.2613 115.247 18.5681C115.247 18.6265 115.247 18.6265 115.188 18.6849C114.538 20.0861 112.471 21.1371 110.226 21.0787C106.8 21.0787 105.087 19.2104 105.087 16.9333C105.087 14.8899 106.741 13.4303 109.222 12.6713C110.935 12.1458 113.061 12.029 115.188 12.029V10.5694C115.188 8.75949 114.007 7.94211 112.943 7.94211C112.057 7.94211 111.23 8.52595 111.23 9.63526C111.23 11.6203 106.682 11.7955 106.623 9.69365C106.623 7.5918 109.458 5.95703 113.18 5.95703C117.964 5.95703 120.209 8.93465 120.209 12.7297V16.9333C120.209 19.0936 121.45 19.0352 122.395 17.9843L123.399 19.0352ZM115.188 13.9557V13.4303C113.298 13.4303 110.049 13.6054 110.049 16.2911C110.049 17.4004 110.699 18.3346 112.294 18.3346C113.534 18.3346 115.07 17.4004 115.188 13.9557Z" fill="#03576B"/>
<path d="M134.504 16.116V11.2117C134.504 8.58442 133.677 8.05896 133.087 8.05896C131.551 8.05896 130.31 10.803 130.31 13.4887V16.0577C130.31 18.7434 131.196 19.2688 131.964 19.444V20.5533H123.753L123.812 19.444C124.58 19.3272 125.466 18.7434 125.466 16.0577V11.1533C125.466 8.52603 124.462 8.23412 123.694 7.76704C125.171 5.89873 129.188 5.78196 130.31 6.30742V8.58442C131.019 7.1248 133.146 5.84033 134.918 5.84033C136.867 5.84033 139.348 7.06641 139.348 11.1533V15.9993C139.348 18.685 140.234 19.2104 141.002 19.3856L141.061 20.4949H132.85V19.3856C133.618 19.3272 134.504 18.8017 134.504 16.116Z" fill="#03576B"/>
<path d="M151.28 19.0357C149.862 20.6121 148.563 21.0792 146.909 21.0792C144.841 21.0792 143.069 20.0282 143.069 17.868V15.4159V8.17614H141.297V6.95007C144.782 5.84076 146.259 3.97245 147.499 2.2793H148.09V6.4246H150.748V8.17614H148.09V16.9338C148.09 19.0941 149.33 19.0357 150.276 17.9848L151.28 19.0357Z" fill="#03576B"/>
<path d="M166.048 18.043C164.453 20.0864 161.854 21.1957 159.137 21.1957C154.765 21.1957 151.28 17.8094 151.28 13.5473C151.28 9.28524 154.825 5.89893 159.137 5.89893C163.508 5.89893 166.284 8.05916 165.93 10.8032C165.694 12.438 164.512 13.4889 162.445 14.1312C160.968 14.5983 159.019 14.8318 156.715 14.3647C156.774 16.7001 158.841 18.4516 161.027 18.5684C162.386 18.6852 164.099 18.1013 165.103 16.9336L166.048 18.043ZM156.833 12.6716C160.495 13.3722 161.972 11.8542 162.445 10.4529C162.917 8.93494 161.618 7.76724 160.377 7.94239C158.132 8.11754 157.187 10.2778 156.833 12.6716Z" fill="#03576B"/>
<path d="M175.085 17.167C175.085 15.9994 171.955 14.7733 169.592 13.3137C167.879 12.2627 166.874 10.9199 167.347 9.40187C167.997 7.12487 170.891 6.13232 173.845 6.13232C176.621 6.13232 178.63 7.24165 178.925 8.70127C179.397 11.4453 175.203 11.5621 175.558 8.87641C175.676 7.94226 174.613 7.53357 173.49 7.53357C172.427 7.53357 171.482 8.00064 171.482 8.81802C171.482 9.92733 174.376 10.8031 177.448 12.905C178.807 13.8391 179.516 14.89 179.516 16.1745C179.516 18.2763 177.566 20.7869 173.018 20.7869C169.415 20.7869 166.579 19.3273 166.579 16.8751C166.579 15.9994 167.288 14.6565 169.001 14.6565C170.123 14.6565 170.95 15.3571 170.95 16.1745C170.95 16.8751 170.123 17.167 170.123 17.6925C170.123 18.685 171.364 19.2105 172.604 19.2105C174.199 19.2105 175.085 18.3347 175.085 17.167Z" fill="#03576B"/>
<path d="M39.1649 32.9895H36.0342V26.5088H39.1059C40.4645 26.5088 41.2915 27.151 41.2915 28.2019C41.2915 28.9609 40.878 29.3696 40.4054 29.6032C41.1733 29.8951 41.6459 30.3038 41.6459 31.1796C41.6459 32.4056 40.6417 32.9895 39.1649 32.9895ZM39.8738 28.4355C39.8738 28.0268 39.5193 27.7932 38.9286 27.7932H37.5109V29.1361H38.8696C39.4603 29.1361 39.8738 28.9026 39.8738 28.4355ZM40.2282 31.0044C40.2282 30.5957 39.8738 30.3038 39.1649 30.3038H37.5109V31.705H39.224C39.8147 31.705 40.2282 31.5299 40.2282 31.0044Z" fill="#03576B"/>
<path d="M46.5488 32.9895V26.5088H51.5108V27.7932H48.0256V29.0777H51.0973V30.3622H48.0256V31.705H51.5698V32.9895H46.5488Z" fill="#03576B"/>
<path d="M61.4345 32.9893L60.8438 31.5297H58.0675L57.4768 32.9893H56L58.8354 26.4502H60.194L63.0294 32.9893H61.4345ZM59.4852 28.1433L58.5991 30.2452H60.3122L59.4852 28.1433Z" fill="#03576B"/>
<path d="M70.3543 33.106C68.405 33.106 66.9873 31.6464 66.9873 29.7781C66.9873 27.9098 68.405 26.4502 70.4134 26.4502C71.6539 26.4502 72.3627 26.8589 73.0125 27.4427L72.0674 28.4937C71.5358 28.0266 71.0632 27.7346 70.4134 27.7346C69.2911 27.7346 68.5231 28.6688 68.5231 29.7781C68.5231 30.8874 69.2911 31.8216 70.4134 31.8216C71.1813 31.8216 71.5948 31.5297 72.1265 31.0626L73.0716 31.9967C72.3628 32.639 71.6539 33.106 70.3543 33.106Z" fill="#03576B"/>
<path d="M82.0505 32.9895V30.3622H79.3923V32.9895H77.9746V26.5088H79.3923V29.0777H82.0505V26.5088H83.4682V32.9895H82.0505Z" fill="#03576B"/>
<path d="M99.4763 32.9895V30.3622H96.8181V32.9895H95.4004V26.5088H96.8181V29.0777H99.4763V26.5088H100.894V32.9895H99.4763Z" fill="#03576B"/>
<path d="M109.4 33.106C107.392 33.106 105.915 31.588 105.915 29.7781C105.915 27.9098 107.392 26.4502 109.4 26.4502C111.409 26.4502 112.885 27.9682 112.885 29.7781C112.885 31.588 111.409 33.106 109.4 33.106ZM111.35 29.7197C111.35 28.6104 110.523 27.6763 109.341 27.6763C108.16 27.6763 107.392 28.6104 107.392 29.7197C107.392 30.8291 108.219 31.7632 109.4 31.7632C110.582 31.7632 111.35 30.8874 111.35 29.7197Z" fill="#03576B"/>
<path d="M120.624 33.1063C118.852 33.1063 117.789 32.1137 117.789 30.2454V26.5672H119.207V30.2454C119.207 31.2963 119.738 31.8218 120.624 31.8218C121.511 31.8218 122.042 31.2963 122.042 30.2454V26.5088H123.46V30.187C123.519 32.1137 122.397 33.1063 120.624 33.1063Z" fill="#03576B"/>
<path d="M131.02 33.0477C130.016 33.0477 129.012 32.6974 128.244 31.9967L129.071 31.0042C129.662 31.4713 130.253 31.7632 131.02 31.7632C131.611 31.7632 131.966 31.5297 131.966 31.1794C131.966 30.8291 131.729 30.6539 130.666 30.362C129.366 30.0117 128.48 29.6613 128.48 28.3769C128.48 27.2092 129.426 26.4502 130.784 26.4502C131.729 26.4502 132.556 26.7421 133.206 27.2676L132.438 28.3185C131.847 27.9098 131.257 27.6763 130.725 27.6763C130.193 27.6763 129.898 27.9098 129.898 28.2601C129.898 28.6688 130.193 28.844 131.316 29.1359C132.674 29.4862 133.383 29.9533 133.383 31.0626C133.442 32.347 132.438 33.0477 131.02 33.0477Z" fill="#03576B"/>
<path d="M138.463 32.9895V26.5088H143.425V27.7932H139.94V29.0777H143.011V30.3622H139.94V31.705H143.484V32.9895H138.463Z" fill="#03576B"/>
</svg>
