<svg  viewBox="0 0 30 28" fill="none" xmlns="http://www.w3.org/2000/svg">
<path d="M28.4 10C28.2 9.3 27.9 8.6 27.6 8C25.5 3.7 21.4 0.7 16.6 0.0999999L16.1 0C15.7 0 15.4 0 15 0C14.6 0 14.3 0 13.9 0L13.3 0.0999999C8.50002 0.6 4.40002 3.6 2.30002 8C2.00002 8.6 1.70002 9.3 1.50002 10C0.700024 12.6 0.700024 15.4 1.50002 18C1.70002 18.7 2.00002 19.4 2.30002 20C4.40002 24.3 8.50002 27.3 13.3 27.9L13.9 28C14.3 28 14.6 28 15 28C15.4 28 15.7 28 16.1 28L16.7 27.9C21.5 27.3 25.6 24.3 27.7 20C28 19.4 28.3 18.7 28.5 18C29.2 15.3 29.2 12.6 28.4 10ZM25.4 8H20.2C19.7 6 18.9 4.1 17.8 2.3C21 3.1 23.7 5.1 25.4 8ZM19 14C19 15.3 18.9 16.7 18.6 18H11.3C10.8 15.4 10.8 12.6 11.3 10H18.6C18.9 11.3 19 12.7 19 14ZM18.2 20C17.6 22.2 16.6 24.2 15.2 26H14.9C13.5 24.2 12.5 22.2 11.9 20H18.2ZM11.8 8C12.4 5.8 13.4 3.8 14.8 2H15.1C16.5 3.8 17.5 5.8 18.1 8H11.8ZM12.2 2.3C11.1 4.1 10.3 6 9.80002 8H4.60002C6.30002 5.1 9.00002 3.1 12.2 2.3ZM3.00002 14C3.00002 12.6 3.20002 11.3 3.70002 10H9.40002C8.90002 12.6 8.90002 15.4 9.40002 18H3.70002C3.20002 16.7 3.00002 15.4 3.00002 14ZM4.60002 20H9.80002C10.3 22 11.1 23.9 12.2 25.7C9.00002 24.9 6.30002 22.9 4.60002 20ZM17.8 25.7C18.9 23.9 19.7 22 20.2 20H25.4C23.7 22.9 21 24.9 17.8 25.7ZM20.7 18C20.9 16.7 21 15.3 21 14C21 12.7 20.9 11.3 20.7 10H26.3C27.2 12.6 27.2 15.4 26.3 18H20.7Z" fill="currentColor"/>
</svg>
