<svg width="16" height="16" viewBox="0 0 16 16" fill="none" xmlns="http://www.w3.org/2000/svg">
<path d="M0.615339 8.61534H7.38466V15.3847C7.38466 15.7244 7.66046 16 8 16C8.33976 16 8.61534 15.7242 8.61534 15.3847V8.61534H15.3847C15.7244 8.61534 16 8.33954 16 8C16 7.66024 15.7242 7.38466 15.3847 7.38466H8.61534V0.615338C8.61534 0.275576 8.33954 0 8 0C7.66024 0 7.38466 0.275801 7.38466 0.615338V7.38466H0.615339C0.275576 7.38466 1.25171e-07 7.66046 1.25171e-07 8C-0.000214493 8.33976 0.275587 8.61534 0.615339 8.61534Z" fill="#E5542C"/>
</svg>
