<svg clip-rule="evenodd" fill-rule="evenodd" stroke-linejoin="round" stroke-miterlimit="1.414" viewBox="0 0 512 512" xmlns="http://www.w3.org/2000/svg" xmlns:serif="http://www.serif.com/"><g id="ITALY" transform="matrix(1.043188 0 0 1.043588 -11.5492 -11.72464)"><g><path d="m335.938 16.5h39.955c53.373.001 98.627 35.077 114.001 83.441l.169.537c3.533 11.298 5.437 23.314 5.437 35.772v34.594h-.286v170.312h-.287v34.594c0 66.088-53.588 119.745-119.606 119.75h-39.383z" fill="#dd4347"/></g><g><path d="m176.062 16.5h159.875v479h-159.875z" fill="#fff"/></g><g><path d="m176.062 16.5v479h-39.955c-8.103 0-16.019-.809-23.672-2.35l-.64-.131c-42.458-8.791-76.714-40.143-89.689-80.96l-.169-.537c-3.533-11.298-5.437-23.314-5.437-35.772v-34.594h.286v-170.312h.287v-34.594c0-57.776 40.955-106.05 95.362-117.283l.735-.15c7.602-1.52 15.463-2.317 23.509-2.317z" fill="#00a05b"/></g></g></svg>